<svg xmlns="http://www.w3.org/2000/svg" width="17" height="12" viewBox="0 0 17 12"><g><g><path fill="#e7eaf3" fill-opacity=".7" d="M.607 12h15.786c.335 0 .607-.22.607-.49v-1.224c0-.27-.272-.49-.607-.49H.607c-.335 0-.607.22-.607.49v1.224c0 .27.272.49.607.49zm0-4.898h15.786c.335 0 .607-.22.607-.49V5.388c0-.27-.272-.49-.607-.49H.607c-.335 0-.607.22-.607.49v1.224c0 .27.272.49.607.49zm0-4.898h15.786c.335 0 .607-.22.607-.49V.49c0-.27-.272-.49-.607-.49H.607C.272 0 0 .22 0 .49v1.224c0 .27.272.49.607.49z"/></g></g></svg>