<svg xmlns="http://www.w3.org/2000/svg" width="15.012" height="13.304" viewBox="0 0 15.012 13.304"><defs><style>.a{fill:none;stroke:#fff;stroke-linecap:round;stroke-linejoin:round;}</style></defs><g transform="translate(-2669.477 -3822.424)"><circle class="a" cx="2.68" cy="2.68" r="2.68" transform="translate(2676.628 3825.784)"/><path class="a" d="M2691.808,3849.3h0a4.084,4.084,0,0,0-4.084-4.084h-1.276a4.084,4.084,0,0,0-4.084,4.084h0" transform="translate(-7.819 -14.073)"/><circle class="a" cx="2.063" cy="2.063" r="2.063" transform="translate(2671.581 3822.924)"/><path class="a" d="M2674.1,3834.113h-.982a3.143,3.143,0,0,0-3.143,3.143h0" transform="translate(0 -7.063)"/><path class="a" d="M2677.563,3834.113h.982a3.136,3.136,0,0,1,2.388,1.1" transform="translate(-4.789 -7.063)"/></g></svg>