<svg xmlns="http://www.w3.org/2000/svg" width="15" height="15" viewBox="0 0 15 15"><defs><style>.a{fill:none;stroke:#fff;stroke-linecap:round;stroke-linejoin:round;}</style></defs><g transform="translate(-3235.295 -1758.274)"><g transform="translate(3240.536 1763.514)"><circle class="a" cx="2.259" cy="2.259" r="2.259"/></g><path class="a" d="M3249.795,1767.092v-2.637h-2.119a5.029,5.029,0,0,0-.5-1.2l1.5-1.5-1.864-1.865-1.5,1.5a5.1,5.1,0,0,0-1.2-.5v-2.115h-2.637v2.115a5.083,5.083,0,0,0-1.2.5l-1.5-1.5-1.865,1.865,1.5,1.5a5.009,5.009,0,0,0-.5,1.2h-2.12v2.637h2.12a5.007,5.007,0,0,0,.5,1.2l-1.5,1.5,1.865,1.865,1.5-1.5a5.073,5.073,0,0,0,1.2.5v2.116h2.637v-2.116a5.089,5.089,0,0,0,1.2-.5l1.5,1.5,1.864-1.865-1.5-1.5a5.027,5.027,0,0,0,.5-1.2Z" transform="translate(0 0)"/></g></svg>